<svg width="502" height="376" xmlns="http://www.w3.org/2000/svg" xmlns:xlink="http://www.w3.org/1999/xlink" xml:space="preserve" overflow="hidden"><g transform="translate(-5226 -1533)"><path d="M101.088 109.408C100.696 110.858 101.52 111.735 101.953 112.699 123.873 161.465 145.817 210.219 167.718 258.992 168.753 261.298 169.533 263.413 172.783 263.094 175.165 262.86 174.609 264.75 174.419 266.198 172.97 277.212 167.343 285.895 159.158 293.03 146.423 304.132 131.196 310.027 114.874 313.098 87.9228 318.17 61.4834 316.558 36.0512 305.539 25.7148 301.06 16.5133 294.872 9.25941 286.082 4.40891 280.205 1.11022 273.63 0.077497 265.987-0.239352 263.642 0.391227 262.497 2.91043 262.733 4.72716 262.903 5.98442 262.473 6.88788 260.454 30.176 208.417 53.5358 156.412 76.9627 104.431 78.115 101.874 78.0634 100.452 75.8482 98.284 68.0968 90.6968 65.2611 81.1006 66.3053 70.449 67.051 62.842 74.7305 56.9388 82.1992 57.774 86.4953 58.2544 89.7466 61.6385 89.8881 65.7769 90.0305 69.9394 87.8221 72.5672 83.0109 73.2115 80.6532 73.5272 80.5152 74.6108 80.8854 76.3944 81.4268 79.0027 82.7718 81.179 84.6537 82.9911 92.1594 90.2181 100.889 93.317 111.207 90.4604 120.932 87.7678 129.982 83.4175 138.838 78.684 153.559 70.8148 168.558 63.6828 185.099 60.4636 198.704 57.8162 212.321 55.316 226.214 58.487 226.886 58.6403 227.997 58.7315 228.296 58.3612 230.865 55.183 235.983 54.2244 235.559 48.3493 235.209 43.5013 237.896 39.3389 242.481 37.0824 244.579 36.05 245.191 34.6094 245.295 32.4945 245.597 26.3813 245.97 20.2707 246.401 14.165 246.521 12.4539 245.945 11.1739 244.963 9.80673 242.814 6.81319 243.243 3.89341 245.887 1.70571 248.656-0.58536 253.01-0.578967 255.737 1.72006 258.363 3.93317 258.97 7.08653 256.765 9.84384 255.209 11.7886 255.034 13.6629 255.256 15.9426 255.812 21.6669 256.243 27.4057 256.592 33.1463 256.699 34.8983 257.142 36.0396 258.869 36.8604 264.082 39.3373 266.2 43.759 266.268 49.3661 266.329 54.4558 272.265 59.0052 277.335 58.0543 289.366 55.7985 301.255 57.4761 313.074 59.6866 329.219 62.7059 344.245 68.7932 358.679 76.5363 368.273 81.683 377.993 86.603 388.437 89.8973 398.827 93.1744 407.986 91.0498 416.052 83.8446 417.615 82.4487 418.988 80.8985 419.9 78.9826 421.829 74.9264 421.489 74.1327 417.32 72.9916 413.93 72.0638 411.637 69.0553 411.747 65.6807 411.872 61.8225 414.814 58.5227 418.757 57.8162 426.107 56.4994 434.049 61.7586 435.057 69.2058 436.607 80.6674 433.525 90.8379 424.95 98.8885 423.423 100.322 423.436 101.209 424.168 102.832 447.799 155.254 471.412 207.686 494.954 260.15 495.84 262.124 496.866 263.098 499.023 262.852 501.534 262.567 501.756 263.915 501.448 266.016 500.024 275.738 495.542 283.835 488.51 290.55 475.301 303.167 459.094 309.739 441.485 313.037 415.072 317.982 389.065 316.82 364.001 306.241 353.162 301.666 343.547 295.211 335.964 286.035 331.178 280.244 328.142 273.663 327.067 266.199 326.767 264.113 326.921 262.41 329.712 262.844 332.415 263.265 332.9 261.201 333.695 259.438 349.597 224.2 365.505 188.964 381.403 153.726 387.542 140.121 393.665 126.511 399.789 112.9 400.232 111.915 400.627 110.909 401.162 109.631 384.097 110.157 370.154 101.932 355.888 94.8745 341.035 87.5267 326.052 80.6683 309.492 78.112 307.317 77.7761 305.107 77.662 302.931 77.3297 293.459 75.8839 285.599 78.955 278.988 85.6996 274.963 89.8055 271.09 94.1017 266.023 97.008 264.755 97.7356 264.611 98.5227 265.511 99.6118 266.368 100.649 267.156 101.748 268.057 102.745 271.496 106.55 271.77 110.345 268.825 114.584 267.848 115.99 266.856 117.393 265.776 118.72 262.211 123.105 261.47 128.057 262.148 133.564 265.914 164.177 269.541 194.804 273.225 225.426 273.732 229.638 272.967 233.593 270.108 236.75 268.31 238.734 268.86 239.717 270.491 241.396 282.629 253.89 287.94 268.658 284.514 286.016 282.7 295.209 277.862 302.809 270.832 308.933 268.957 310.566 268.883 311.857 270.047 313.866 271.911 317.084 274.036 320.094 276.956 322.365 286.102 329.475 295.763 335.277 308.106 333.677 312.162 333.151 315.904 334.222 319.288 336.426 324.313 339.698 329.25 343.105 334.278 346.373 335.457 347.139 336.089 348.067 335.866 349.386 335.31 352.692 337.26 352.861 339.749 352.843 346.605 352.793 353.463 352.948 360.32 352.909 363.542 352.89 365.979 353.998 367.662 356.828 369.98 360.726 372.599 363.88 377.961 363.722 380.871 363.636 382.726 366.053 382.741 369.221 382.756 372.051 380.236 374.797 377.244 375.21 375.919 375.392 374.556 375.327 373.21 375.327 291.419 375.315 209.624 375.299 127.839 375.275 126.495 375.274 125.117 375.336 123.814 375.076 120.818 374.478 118.528 371.56 118.851 368.676 119.214 365.431 121.106 363.4 124.448 363.593 128.31 363.817 130.842 362.029 132.434 358.868 134.857 354.056 138.622 352.568 143.848 352.875 150.071 353.239 156.333 352.869 162.575 352.978 164.864 353.018 166.129 352.463 165.71 349.931 165.411 348.127 166.212 347.016 167.748 346.061 172.736 342.96 177.666 339.765 182.569 336.532 186.463 333.964 190.753 333.622 195.245 333.825 208.927 334.446 219.189 327.438 228.596 318.636 229.296 317.981 229.792 317.089 230.306 316.259 232.202 313.198 231.866 310.421 229.298 307.926 211.935 291.05 211.454 263.583 228.528 244.237 231.635 240.715 233.864 238.298 229.893 233.966 227.905 231.796 228.184 228.426 228.517 225.465 230.615 206.858 232.686 188.248 234.879 169.652 236.341 157.256 237.973 144.881 239.564 132.5 240.255 127.125 239.25 122.285 235.473 118.19 234.396 117.022 233.397 115.771 232.474 114.477 229.612 110.464 229.887 106.612 233.209 103.02 233.707 102.481 234.144 101.885 234.646 101.349 236.687 99.1683 237.024 97.5664 233.816 95.8774 230.914 94.3491 228.549 91.8639 226.455 89.3006 217.639 78.5057 206.51 75.5102 192.969 77.9639 176.127 81.0159 160.577 87.2735 145.481 94.9774 138.065 98.7623 130.572 102.363 122.759 105.267 115.754 107.871 108.719 110.305 101.092 109.4ZM417.126 104.788C417.031 106.485 416.883 107.903 416.882 109.322 416.849 158.906 416.854 208.489 416.75 258.073 416.744 260.927 417.712 261.479 420.347 261.504 442.015 261.71 463.683 261.999 485.348 262.44 488.909 262.513 488.816 261.474 487.557 258.8 483.442 250.057 479.47 241.247 475.5 232.437 456.909 191.174 438.339 149.9 419.738 108.641 419.17 107.38 418.969 105.838 417.127 104.788ZM84.793 105.404C84.4222 105.298 84.0514 105.192 83.6806 105.086 82.7579 107.02 81.7994 108.938 80.9183 110.891 69.0001 137.308 57.0735 163.72 45.1886 190.153 34.8584 213.128 24.5684 236.121 14.3036 259.125 13.6791 260.525 11.8199 262.504 15.7321 262.431 37.7556 262.02 59.7822 261.723 81.8072 261.526 84.5316 261.501 84.9503 260.472 84.9448 258.071 84.8458 214.749 84.8264 171.427 84.7924 128.105 84.7864 120.538 84.7916 112.971 84.7916 105.405ZM409.376 107.139C385.957 159.031 362.727 210.506 339.395 262.203 340.331 262.33 340.804 262.463 341.272 262.449 363.424 261.778 385.58 261.441 407.741 261.539 410.704 261.552 410.714 260.1 410.711 257.915 410.654 209.067 410.646 160.218 410.597 111.369 410.596 110.232 411.09 108.953 409.376 107.14ZM162.477 262.208C138.835 210.539 116.069 158.912 92.2604 106.858 90.774 109.247 91.1147 110.611 91.1145 111.887 91.1072 160.59 91.1605 209.293 91.071 257.996 91.0653 261.097 92.1923 261.512 94.8562 261.532 113.455 261.675 132.053 261.973 150.651 262.201 154.417 262.247 158.184 262.208 162.476 262.208ZM250.863 88.2372C258.117 88.2108 263.839 82.6494 263.88 75.5844 263.921 68.5471 258.175 62.7946 251.028 62.7177 243.819 62.6402 237.991 68.2905 238.011 75.3379 238.032 82.3489 243.924 88.2624 250.863 88.2372Z" fill="#F2F1ED" transform="matrix(1 0 0 1.00002 5226.23 1533.6)"/></g></svg>