<svg width="444" height="389" xmlns="http://www.w3.org/2000/svg" xmlns:xlink="http://www.w3.org/1999/xlink" xml:space="preserve" overflow="hidden"><defs><clipPath id="clip0"><rect x="4496" y="2954" width="444" height="389"/></clipPath></defs><g clip-path="url(#clip0)" transform="translate(-4496 -2954)"><path d="M133.941 194.029 133.941 222.771C133.941 226.863 137.29 230.212 141.383 230.212L201.47 230.212C201.098 233.56 200.912 237.002 200.912 240.443L200.912 270.208C200.912 274.301 204.261 277.649 208.353 277.649L372.059 277.649C376.152 277.649 379.501 274.301 379.501 270.208L379.501 240.443C379.501 237.002 379.315 233.56 378.943 230.212L439.03 230.212C443.123 230.212 446.471 226.863 446.471 222.771L446.471 194.029C446.471 166.032 428.24 142.313 403.033 133.941 410.103 126.872 414.381 117.106 414.381 106.316 414.381 84.6435 396.708 66.9707 375.036 66.9707 353.829 66.9707 336.528 83.8064 335.691 104.735 330.482 83.0623 310.949 66.9707 287.695 66.9707 265.65 66.9707 246.954 81.388 240.536 101.386 238.118 82.0391 221.561 66.9707 201.563 66.9707 179.891 66.9707 162.218 84.6435 162.218 106.316 162.218 117.571 166.962 127.802 174.682 134.965 150.87 144.08 133.941 167.148 133.941 194.029ZM431.589 194.029 431.589 215.329 375.873 215.329C369.269 192.82 354.015 173.938 333.923 162.59 343.039 151.893 356.433 145.568 370.757 145.568L383.221 145.568C409.917 145.661 431.589 167.334 431.589 194.029ZM375.036 81.8531C388.523 81.8531 399.499 92.8288 399.499 106.316 399.499 119.803 388.523 130.779 375.036 130.779 361.549 130.779 350.573 119.803 350.573 106.316 350.573 92.8288 361.549 81.8531 375.036 81.8531ZM337.179 116.92C339.132 123.896 342.946 130.128 348.155 134.965 337.086 139.243 327.319 146.498 320.064 156.265 319.413 155.986 318.762 155.8 318.111 155.614 329.552 146.591 337.086 132.639 337.179 116.92ZM287.695 81.8531C306.763 81.8531 322.39 97.3866 322.39 116.548 322.39 135.709 306.856 151.242 287.695 151.242 268.534 151.242 253 135.616 253 116.548 253 97.4796 268.534 81.8531 287.695 81.8531ZM290.206 166.032C331.226 166.032 364.618 199.424 364.618 240.443L364.618 262.767 215.795 262.767 215.795 240.443C215.795 199.424 249.187 166.032 290.206 166.032ZM238.304 120.175C238.862 127.895 241.188 135.151 244.908 141.476 240.164 138.22 234.956 135.709 229.468 133.941 233.281 130.035 236.351 125.384 238.304 120.175ZM201.47 81.8531C214.957 81.8531 225.933 92.8288 225.933 106.316 225.933 119.803 214.957 130.779 201.47 130.779 187.983 130.779 177.007 119.803 177.007 106.316 177.007 92.8288 187.983 81.8531 201.47 81.8531ZM197.192 145.661 209.656 145.661C223.98 145.661 237.281 151.893 246.489 162.683 226.398 174.031 211.144 192.913 204.54 215.422L148.824 215.422 148.824 194.122C148.824 167.334 170.496 145.661 197.192 145.661Z" fill="#FFFFFF" transform="matrix(1 0 0 1.00219 4481.23 2886.88)"/><path d="M84.0854 282.765 22.3236 282.765C18.2309 282.765 14.8824 286.114 14.8824 290.206L14.8824 427.868C14.8824 431.961 18.2309 435.31 22.3236 435.31L84.0854 435.31C88.1781 435.31 91.5266 431.961 91.5266 427.868L91.5266 416.056 121.291 416.056 209.563 444.053C229.561 451.494 246.396 455.122 263.139 455.122 279.975 455.122 296.81 451.401 316.902 443.96 317.646 443.681 318.39 443.309 319.041 442.751L448.332 337.272C448.704 336.9 449.076 336.528 449.448 336.156 458.656 324.715 458.191 307.228 448.332 296.345 438.565 285.463 422.846 284.346 411.87 293.834L347.318 346.015C347.318 345.364 347.318 344.713 347.318 344.062 347.038 328.529 334.854 315.785 320.064 315.785L248.35 315.785C244.257 315.785 240.35 313.367 237.932 309.367 237.374 308.53 236.723 307.786 235.886 307.135 205.47 285.091 167.055 280.905 133.29 295.973L120.826 301.554 91.5266 301.554 91.5266 290.206C91.5266 286.114 88.2711 282.765 84.0854 282.765ZM52.0883 409.265C47.9957 409.265 44.6471 405.917 44.6471 401.824 44.6471 397.732 47.9957 394.383 52.0883 394.383 56.181 394.383 59.5295 397.732 59.5295 401.824 59.5295 405.917 56.181 409.265 52.0883 409.265ZM76.6443 309.088 76.6443 408.614 76.6443 420.427 64.4593 420.427C70.4123 416.428 74.4119 409.637 74.4119 401.824 74.4119 389.546 64.3663 379.501 52.0883 379.501 39.8104 379.501 29.7648 389.546 29.7648 401.824 29.7648 409.544 33.7644 416.428 39.7174 420.427L29.7648 420.427 29.7648 401.824 29.7648 297.648 76.6443 297.648 76.6443 309.088ZM122.501 316.53C123.524 316.53 124.547 316.344 125.477 315.879L139.429 309.647C167.892 296.996 200.168 300.345 226.119 318.483 231.328 326.203 239.513 330.668 248.443 330.668L320.157 330.668C326.854 330.668 332.435 336.807 332.528 344.248 332.621 348.434 331.133 352.34 328.436 355.038 327.133 356.34 325.552 357.363 323.971 357.921 321.831 358.293 319.692 358.479 317.553 358.479L237.746 358.479C233.653 358.479 230.305 361.828 230.305 365.921 230.305 370.013 233.653 373.362 237.746 373.362L320.901 373.362C323.134 373.362 325.366 373.083 327.505 372.525 336.807 370.85 345.55 366.758 353.27 360.619L421.543 305.368C421.636 305.275 421.636 305.275 421.729 305.182 426.566 300.996 433.17 301.554 437.542 306.298 442.379 311.6 442.751 320.436 438.472 326.296L310.856 430.473C274.766 443.681 251.233 443.495 214.864 430.008 214.771 430.008 214.678 429.915 214.492 429.915L125.012 401.452C124.268 401.266 123.524 401.08 122.78 401.08L91.5266 401.08 91.5266 316.437 122.501 316.437Z" fill="#FFFFFF" transform="matrix(1 0 0 1.00219 4481.23 2886.88)"/></g></svg>