<svg width="663" height="438" xmlns="http://www.w3.org/2000/svg" xmlns:xlink="http://www.w3.org/1999/xlink" xml:space="preserve" overflow="hidden"><defs><clipPath id="clip0"><rect x="1508" y="2978" width="663" height="438"/></clipPath><clipPath id="clip1"><rect x="2048" y="3190" width="123" height="12"/></clipPath></defs><g clip-path="url(#clip0)" transform="translate(-1508 -2978)"><g><path d="M401.471 427.683C391.465 427.683 381.838 422.173 372.969 412.319L372.738 412.02C370.463 409.029 368.4 406.417 366.437 404.05L366.074 403.57C353.359 385.318 342.621 357.751 335.208 324.467L415.309 310.185C439.764 309.327 452.956 262.816 452.956 219.006 452.956 175.088 439.704 128.456 415.135 127.815L415.135 127.808C414.516 127.748 357.73 122.123 334.346 117.533 347.778 54.1494 373.128 10.3271 401.471 10.3271 443.343 10.3271 478.716 105.892 478.716 219.006 478.716 332.119 443.343 427.683 401.471 427.683ZM376.302 219.006C376.302 252.539 384.034 287.648 398.621 302.67L333.099 314.354C327.461 285.582 324.23 253.106 324.23 219.006 324.23 186.48 327.167 155.426 332.33 127.655 348.493 130.824 378.783 134.337 397.655 136.374 383.692 151.93 376.302 186.22 376.302 219.006ZM414.627 299.898C401.387 299.898 386.629 266.676 386.629 219.006 386.629 171.333 401.387 138.112 414.627 138.112 427.873 138.112 442.629 171.333 442.629 219.006 442.629 266.676 427.873 299.898 414.627 299.898ZM208.409 299.163 208.431 298.994 204.287 297.615C201.868 296.812 199.451 296.076 197.025 295.336 190.265 293.288 183.531 291.424 177.033 289.797 166.822 287.205 156.277 284.884 145.688 282.909L145.662 283.05C145.657 283.048 145.652 283.046 145.648 283.046 131.788 280.499 117.891 278.556 104.349 277.27 100.5 276.9 96.6079 276.616 92.73 276.344 73.4844 223.413 88.1859 173.733 92.642 160.978 143.184 159.997 254.055 147.404 339.165 63.7349 323.477 103.114 313.903 157.746 313.903 219.006 313.903 280.671 323.605 335.619 339.483 375.055 304.344 341.921 260.417 316.47 208.409 299.163ZM180.72 326.332 180.72 301.744C185.086 302.914 189.494 304.144 193.943 305.492 194.806 305.758 195.669 306.019 196.535 306.286 194.145 315.799 188.13 323.274 180.72 326.332ZM139.79 427.844C131.503 427.844 123.738 424.626 117.909 418.768 112.065 412.952 108.846 405.186 108.846 396.9L108.846 288.133C120.356 289.37 132.072 291.05 143.765 293.201L143.738 293.342C152.843 295.044 161.879 297.038 170.733 299.212L170.733 396.9C170.733 413.964 156.852 427.844 139.79 427.844ZM66.5394 275.422C65.9207 275.422 65.3501 275.402 64.7733 275.384 45.9146 224.966 60.5469 173.464 64.862 160.454 65.341 160.439 65.8075 160.419 66.3138 160.417 67.5618 160.526 73.1248 160.948 82.0356 161.038 76.3783 178.318 64.7873 224.684 81.9099 275.703 72.2937 275.3 66.7217 275.415 66.5394 275.422ZM10.3271 217.904C10.3271 202.5 16.1827 188.051 26.8219 177.215 34.2795 169.601 43.6771 164.366 53.8701 161.957 48.2952 180.322 37.751 226.395 53.618 273.815 28.7912 267.785 10.3271 244.712 10.3271 217.904ZM401.471 0.000698342C387.334 0.000698342 374.088 8.01417 362.378 22.3015L362.027 22.0376C276.104 136.522 142.587 150.16 89.1615 150.711 75.3888 150.892 67.1037 150.123 67.0219 150.112L66.5394 150.09C64.4702 150.09 62.591 150.178 60.8668 150.349 45.2491 151.688 30.5385 158.663 19.4481 169.985 6.9066 182.759 0 199.777 0 217.904 0 252.889 26.7367 282.58 60.7962 285.484 62.5791 285.666 64.3948 285.651 66.6637 285.75 66.7391 285.731 75.0627 285.56 88.8954 286.395 92.2007 286.606 95.5331 286.905 98.8594 287.191L98.8594 396.9C98.8594 407.862 103.122 418.142 110.846 425.831 118.546 433.568 128.826 437.834 139.79 437.834 162.36 437.834 180.72 419.47 180.72 396.9L180.72 337.552C193.054 334.446 202.933 323.734 206.664 309.473 269.99 330.821 320.83 364.506 357.772 409.732L358.337 410.458C358.39 410.524 358.441 410.596 358.499 410.662 360.346 413.218 362.24 415.608 364.175 417.83 364.289 417.981 364.409 418.124 364.523 418.274L364.55 418.251C375.72 430.931 388.198 438.009 401.471 438.009 450.576 438.009 489.043 341.81 489.043 219.006 489.043 96.2008 450.576 0.000698342 401.471 0.000698342" fill="#FFFFFF" transform="matrix(1.00069 0 0 1 1508.01 2978)"/></g><g clip-path="url(#clip1)"><path d="M657.371 223.222 545.017 223.222C542.164 223.222 539.851 220.913 539.851 218.059 539.851 215.208 542.164 212.896 545.017 212.896L657.371 212.896C660.221 212.896 662.534 215.208 662.534 218.059 662.534 220.913 660.221 223.222 657.371 223.222" fill="#FFFFFF" transform="matrix(1.00069 0 0 1 1508.01 2978)"/></g><path d="M525.844 126.478C523.799 126.478 521.865 125.258 521.053 123.248 519.984 120.604 521.263 117.593 523.909 116.526L628.082 74.4369C630.728 73.3615 633.739 74.6458 634.804 77.2897 635.873 79.9336 634.593 82.9434 631.953 84.0112L527.775 126.1C527.143 126.357 526.487 126.478 525.844 126.478" fill="#FFFFFF" transform="matrix(1.00069 0 0 1 1508.01 2978)"/><path d="M630.719 362.198C630.078 362.198 629.426 362.078 628.793 361.822L524.617 319.732C521.969 318.662 520.692 315.653 521.762 313.011 522.824 310.368 525.831 309.089 528.483 310.158L632.656 352.248C635.304 353.318 636.581 356.327 635.511 358.967 634.703 360.978 632.765 362.198 630.719 362.198" fill="#FFFFFF" transform="matrix(1.00069 0 0 1 1508.01 2978)"/></g></svg>