<svg width="376" height="474" xmlns="http://www.w3.org/2000/svg" xmlns:xlink="http://www.w3.org/1999/xlink" xml:space="preserve" overflow="hidden"><defs><clipPath id="clip0"><rect x="3708" y="1577" width="376" height="474"/></clipPath></defs><g clip-path="url(#clip0)" transform="translate(-3708 -1577)"><path d="M372.24 28.5459 332.929 28.5459 332.929 3.76C332.929 1.68448 331.244 0 329.169 0L3.76 0C1.68448 0 0 1.68448 0 3.76L0 441.454C0 443.529 1.68448 445.214 3.76 445.214L43.0708 445.214 43.0708 470C43.0708 472.075 44.7552 473.76 46.8308 473.76L372.24 473.76C374.315 473.76 376 472.075 376 470L376 32.3059C376 30.2304 374.315 28.5459 372.24 28.5459ZM7.51999 7.51999 325.409 7.51999 325.409 437.694 7.51999 437.694 7.51999 7.51999ZM368.48 466.24 50.5908 466.24 50.5908 445.214 329.173 445.214C331.248 445.214 332.933 443.529 332.933 441.454L332.933 36.0659 368.48 36.0659 368.48 466.24Z" fill="#FFFFFF" transform="matrix(1 0 0 1.00051 3708 1577)"/><path d="M50.5908 70.3646C50.5908 70.2743 50.5456 70.1992 50.5381 70.1089 50.5231 69.857 50.4592 69.6201 50.3915 69.3757 50.3238 69.1275 50.2524 68.8907 50.1358 68.6651 50.0944 68.5861 50.0944 68.4996 50.0493 68.4207L38.0361 48.5152 60.16 40.2696C61.8595 42.503 64.2358 44.1612 66.9994 44.9771L66.9994 85.946C58.1145 87.3861 50.5832 93.8307 48.0076 102.607 47.673 103.742 47.8948 104.972 48.6055 105.919 49.3124 106.867 50.4291 107.427 51.6135 107.427L89.8978 107.427C91.0822 107.427 92.1989 106.87 92.9058 105.919 93.6164 104.972 93.8382 103.742 93.5036 102.607 90.928 93.8307 83.3967 87.3861 74.5156 85.946L74.5156 44.9771C77.2755 44.1612 79.6555 42.503 81.3551 40.2696L103.479 48.5152 91.4657 68.4207C91.4206 68.4996 91.4168 68.5861 91.3792 68.6651 91.2626 68.8907 91.195 69.1275 91.1235 69.3757 91.0558 69.6239 90.9919 69.857 90.9769 70.1089 90.9694 70.1992 90.9242 70.2743 90.9242 70.3646 90.9242 80.3098 99.0534 88.3975 109.04 88.3975 119.026 88.3975 127.156 80.3098 127.156 70.3646 127.156 70.2743 127.11 70.1992 127.103 70.1089 127.088 69.857 127.024 69.6201 126.956 69.3757 126.889 69.1275 126.817 68.8907 126.701 68.6651 126.659 68.5861 126.659 68.4996 126.614 68.4207L112.258 44.6312C112.172 44.4883 112.033 44.4018 111.931 44.274 111.792 44.0972 111.657 43.9356 111.488 43.7852 111.24 43.5671 110.973 43.4054 110.683 43.2625 110.563 43.2024 110.48 43.0971 110.352 43.0482L83.9946 33.2233C84.0171 32.9113 84.0886 32.618 84.0886 32.3021 84.0886 24.9814 78.1102 19.0256 70.7594 19.0256 63.4086 19.0256 57.4302 24.9814 57.4302 32.3021 57.4302 32.618 57.5016 32.915 57.5242 33.2233L31.1629 43.0482C31.0388 43.0933 30.9561 43.1986 30.8395 43.2588 30.5462 43.4054 30.2755 43.5671 30.0236 43.7889 29.8581 43.9356 29.7228 44.0972 29.5837 44.2702 29.4784 44.4056 29.3393 44.492 29.2528 44.6349L14.8971 68.4244C14.852 68.5034 14.8482 68.5899 14.8106 68.6688 14.6941 68.8944 14.6264 69.1313 14.5549 69.3795 14.4873 69.6276 14.4233 69.8607 14.4083 70.1127 14.4008 70.1992 14.3557 70.2743 14.3557 70.3646 14.3557 80.3098 22.481 88.3975 32.4713 88.3975 42.4616 88.3975 50.5908 80.3098 50.5908 70.3646ZM109.04 53.8544 116.737 66.6084 101.343 66.6084 109.04 53.8544ZM109.04 80.8775C104.532 80.8775 100.67 78.0688 99.1436 74.1246L118.936 74.1246C117.41 78.0726 113.548 80.8775 109.04 80.8775ZM83.9269 99.9069 57.5844 99.9069C60.5698 95.7709 65.454 93.1539 70.7556 93.1539 76.0572 93.1539 80.9415 95.7747 83.9269 99.9069ZM70.7556 26.5493C73.9591 26.5493 76.5648 29.1325 76.5648 32.3059 76.5648 35.4793 73.9591 38.0625 70.7556 38.0625 67.5521 38.0625 64.9464 35.4793 64.9464 32.3059 64.9464 29.1325 67.5521 26.5493 70.7556 26.5493ZM40.168 66.6046 24.7784 66.6046 32.4751 53.8507 40.168 66.6046ZM22.5788 74.1246 42.3676 74.1246C40.8411 78.0688 36.9796 80.8775 32.4713 80.8775 27.9669 80.8775 24.1053 78.0726 22.5788 74.1246Z" fill="#FFFFFF" transform="matrix(1 0 0 1.00051 3708 1577)"/><path d="M166.466 50.3388 262.173 50.3388C264.249 50.3388 265.933 48.6544 265.933 46.5788 265.933 44.5033 264.249 42.8188 262.173 42.8188L166.466 42.8188C164.391 42.8188 162.706 44.5033 162.706 46.5788 162.706 48.6544 164.391 50.3388 166.466 50.3388Z" fill="#FFFFFF" transform="matrix(1 0 0 1.00051 3708 1577)"/><path d="M152.111 83.6411 300.461 83.6411C302.537 83.6411 304.221 81.9567 304.221 79.8811 304.221 77.8056 302.537 76.1211 300.461 76.1211L152.111 76.1211C150.035 76.1211 148.351 77.8056 148.351 79.8811 148.351 81.9567 150.031 83.6411 152.111 83.6411Z" fill="#FFFFFF" transform="matrix(1 0 0 1.00051 3708 1577)"/><path d="M99.4707 133.213 42.0443 133.213C39.9688 133.213 38.2843 134.897 38.2843 136.973 38.2843 139.048 39.9688 140.733 42.0443 140.733L99.4707 140.733C101.546 140.733 103.231 139.048 103.231 136.973 103.231 134.897 101.546 133.213 99.4707 133.213Z" fill="#FFFFFF" transform="matrix(1 0 0 1.00051 3708 1577)"/><path d="M62.2092 165.519C62.2092 167.594 63.8936 169.279 65.9691 169.279L290.885 169.279C292.96 169.279 294.645 167.594 294.645 165.519 294.645 163.443 292.96 161.759 290.885 161.759L65.9691 161.759C63.8936 161.759 62.2092 163.44 62.2092 165.519Z" fill="#FFFFFF" transform="matrix(1 0 0 1.00051 3708 1577)"/><path d="M42.0443 207.338 290.888 207.338C292.964 207.338 294.648 205.653 294.648 203.578 294.648 201.502 292.964 199.818 290.888 199.818L42.0443 199.818C39.9688 199.818 38.2843 201.502 38.2843 203.578 38.2843 205.653 39.965 207.338 42.0443 207.338Z" fill="#FFFFFF" transform="matrix(1 0 0 1.00051 3708 1577)"/><path d="M42.0443 250.156 290.888 250.156C292.964 250.156 294.648 248.472 294.648 246.396 294.648 244.321 292.964 242.636 290.888 242.636L42.0443 242.636C39.9688 242.636 38.2843 244.321 38.2843 246.396 38.2843 248.472 39.965 250.156 42.0443 250.156Z" fill="#FFFFFF" transform="matrix(1 0 0 1.00051 3708 1577)"/><path d="M142.538 288.215 290.888 288.215C292.964 288.215 294.648 286.531 294.648 284.455 294.648 282.38 292.964 280.695 290.888 280.695L142.538 280.695C140.462 280.695 138.778 282.38 138.778 284.455 138.778 286.531 140.462 288.215 142.538 288.215Z" fill="#FFFFFF" transform="matrix(1 0 0 1.00051 3708 1577)"/><path d="M146.298 360.576C146.298 327.022 118.85 299.724 85.1113 299.724 51.3728 299.724 23.9286 327.022 23.9286 360.576 23.9286 394.13 51.3766 421.428 85.1113 421.428 118.85 421.428 146.298 394.13 146.298 360.576ZM31.4486 360.576C31.4486 331.169 55.5239 307.244 85.1113 307.244 114.702 307.244 138.778 331.169 138.778 360.576 138.778 389.983 114.702 413.908 85.1113 413.908 55.5239 413.908 31.4486 389.983 31.4486 360.576Z" fill="#FFFFFF" transform="matrix(1 0 0 1.00051 3708 1577)"/><path d="M127.156 360.576C127.156 337.516 108.295 318.754 85.1113 318.754 61.9272 318.754 43.067 337.516 43.067 360.576 43.067 383.636 61.9272 402.399 85.1113 402.399 108.295 402.399 127.156 383.636 127.156 360.576ZM50.5908 360.576C50.5908 341.663 66.0782 326.274 85.1151 326.274 104.152 326.274 119.639 341.66 119.639 360.576 119.639 379.493 104.152 394.879 85.1151 394.879 66.0782 394.879 50.5908 379.489 50.5908 360.576Z" fill="#FFFFFF" transform="matrix(1 0 0 1.00051 3708 1577)"/><path d="M101.885 343.419C100.29 342.085 97.9216 342.295 96.5868 343.886L75.8767 368.596 69.0937 358.482C67.9356 356.756 65.6044 356.29 63.8748 357.455 62.1528 358.613 61.6903 360.948 62.8484 362.674L72.4175 376.947C73.0755 377.929 74.1584 378.545 75.3391 378.605 75.4067 378.609 75.4744 378.609 75.5383 378.609 76.6475 378.609 77.7041 378.12 78.4223 377.267L102.351 348.721C103.686 347.127 103.475 344.754 101.885 343.419Z" fill="#FFFFFF" transform="matrix(1 0 0 1.00051 3708 1577)"/><path d="M299.1 361.103C294.739 362.791 290.23 364.295 285.7 365.569 280.853 366.931 275.909 368.055 270.93 368.92 271.367 367.822 271.735 366.697 272.032 365.547 272.991 361.828 274.307 356.737 271.303 353.064 268.246 349.323 262.241 348.924 253.446 351.879 246.896 354.083 241.407 357.775 237.008 361.629 237.184 358.305 236.617 355.094 234.451 352.842 229.725 347.909 220.911 350.492 207.292 356.598 193.072 362.971 179.013 370.781 165.511 379.812 163.785 380.967 163.319 383.302 164.474 385.027 165.199 386.114 166.391 386.697 167.606 386.697 168.324 386.697 169.049 386.49 169.692 386.061 182.849 377.267 196.535 369.66 210.372 363.46 225.844 356.523 228.555 357.572 229.029 358.049 229.093 358.117 230.563 359.775 228.13 368.141 227.175 371.416 225.517 373.883 224.622 375.206 222.445 378.44 223.551 380.324 224.863 381.339 225.66 381.952 226.698 382.226 227.705 382.087 229.424 381.846 230.164 380.846 231.638 378.857 234.797 374.593 243.189 363.268 255.845 359.008 262.508 356.767 265.174 357.523 265.475 357.828 266.046 358.629 265.069 362.422 264.745 363.671 264.023 366.472 262.711 369.089 260.854 371.443 259.91 372.638 259.782 374.285 260.526 375.612 261.271 376.94 262.741 377.684 264.26 377.504 272.175 376.545 280.071 374.966 287.734 372.807 292.498 371.469 297.235 369.886 301.819 368.111 303.755 367.359 304.718 365.182 303.966 363.246 303.214 361.317 301.037 360.354 299.1 361.103Z" fill="#FFFFFF" transform="matrix(1 0 0 1.00051 3708 1577)"/><path d="M285.73 390.137 190.019 399.654C187.955 399.861 186.443 401.699 186.65 403.767 186.842 405.707 188.477 407.155 190.387 407.155 190.512 407.155 190.636 407.151 190.763 407.136L286.474 397.62C288.538 397.413 290.05 395.574 289.843 393.506 289.636 391.438 287.805 389.908 285.73 390.137Z" fill="#FFFFFF" transform="matrix(1 0 0 1.00051 3708 1577)"/></g></svg>