<svg width="484" height="389" xmlns="http://www.w3.org/2000/svg" xmlns:xlink="http://www.w3.org/1999/xlink" xml:space="preserve" overflow="hidden"><g transform="translate(-776 -1502)"><path d="M364.23 288.786C416.96 288.786 459.859 245.887 459.859 193.157 459.859 140.427 416.96 97.529 364.23 97.529 311.5 97.529 268.602 140.427 268.602 193.157 268.602 245.887 311.5 288.786 364.23 288.786ZM284.503 193.157C284.503 149.195 320.268 113.43 364.23 113.43 408.192 113.43 443.958 149.195 443.958 193.157 443.958 237.119 408.192 272.885 364.23 272.885 320.268 272.885 284.503 237.119 284.503 193.157Z" fill="#FFFFFF" transform="matrix(1.00106 0 0 1 722.614 1404.5)"/><path d="M340.872 236.954C345.002 240.987 350.505 243.825 356.555 245.077L356.493 253.526C356.461 257.791 359.906 261.287 364.171 261.319L364.229 261.319C368.462 261.319 371.932 257.874 371.965 253.64L372.029 245.049C378.056 243.778 383.537 240.93 387.644 236.898 392.412 232.217 395.039 226.224 395.039 220.022L395.039 216.607C395.039 208.362 390.398 200.566 382.623 195.753L355.039 178.677C351.806 176.674 349.951 173.868 349.951 170.978L349.951 165.638C349.951 163.04 351.39 160.541 354.002 158.603 356.849 156.491 360.669 155.327 364.759 155.327 368.849 155.327 372.668 156.49 375.516 158.603 378.128 160.541 379.567 163.04 379.567 165.638L379.567 171.664C379.567 175.929 383.038 179.4 387.304 179.4 391.57 179.4 395.04 175.929 395.04 171.664L395.04 165.638C395.04 153.856 385.686 143.664 372.496 140.711L372.496 132.73C372.496 128.464 369.024 124.993 364.759 124.993 360.494 124.993 357.023 128.464 357.023 132.73L357.023 140.711C343.832 143.664 334.478 153.854 334.478 165.638L334.478 170.978C334.478 179.222 339.121 187.018 346.896 191.831L374.479 208.908C377.712 210.91 379.567 213.716 379.567 216.605L379.567 220.021C379.567 222.619 378.128 225.118 375.516 227.056 372.67 229.168 368.849 230.332 364.759 230.332L363.707 230.332C359.617 230.332 355.798 229.169 352.95 227.056 350.338 225.118 348.898 222.619 348.898 220.021L348.898 216.701C348.898 212.435 345.427 208.964 341.162 208.964 336.897 208.964 333.426 212.435 333.426 216.701L333.426 220.021C333.423 226.252 336.068 232.264 340.872 236.954Z" fill="#FFFFFF" transform="matrix(1.00106 0 0 1 722.614 1404.5)"/><path d="M525.543 311.765C514.759 299.78 497.53 298.586 485.416 308.961L414.386 366.417C414.417 365.714 414.427 365.009 414.416 364.301 414.133 347.169 400.681 333.233 384.427 333.233L305.558 333.233C301.012 333.233 296.725 330.607 294.087 326.21 293.518 325.26 292.732 324.473 291.862 323.786 259.573 298.312 216.177 294.974 179.022 311.489L165.287 317.594 137.695 317.594 137.695 304.997C137.695 300.477 134.029 296.811 129.509 296.811L61.5202 296.811C56.9994 296.811 53.3336 300.477 53.3336 304.997L53.3336 456.421C53.3336 460.941 56.9994 464.607 61.5202 464.607L129.507 464.607C134.028 464.607 137.694 460.941 137.694 456.421L137.694 443.427 165.756 443.427 262.86 474.259C284.882 482.402 303.345 486.474 321.806 486.474 336.604 486.474 351.403 483.858 368.036 478.625 369.565 478.145 371.109 477.641 372.67 477.116 376.038 475.822 379.311 474.281 382.464 472.522 385.062 471.071 387.522 469.385 389.829 467.504L525.511 356.807C525.959 356.441 526.368 356.03 526.728 355.578 536.821 342.965 536.299 323.719 525.543 311.765ZM121.321 448.236 69.7068 448.236 69.7068 313.185 121.321 313.185 121.321 448.236ZM514.415 344.731 387.866 447.976C376.813 456.993 363.857 463.393 349.968 466.643 322.458 473.078 299.778 470.478 268.366 458.841 268.244 458.795 268.121 458.754 267.998 458.715L169.501 427.441C168.7 427.187 167.864 427.057 167.023 427.057L137.695 427.057 137.695 333.97 167.026 333.97C168.171 333.97 169.305 333.73 170.35 333.264L185.674 326.453C216.978 312.538 252.51 316.188 281.027 336.173 286.74 344.619 295.787 349.608 305.558 349.608L384.427 349.608C391.798 349.608 397.907 356.321 398.044 364.573 398.119 369.129 396.474 373.457 393.532 376.449 392.087 377.918 390.399 378.98 388.599 379.58 386.269 379.957 383.903 380.148 381.515 380.148L293.786 380.148C289.286 380.148 285.536 383.726 285.478 388.226 285.418 392.797 289.106 396.521 293.664 396.521L385.127 396.521C387.587 396.521 390.008 396.192 392.342 395.555 402.55 393.713 412.188 389.257 420.658 382.406L495.809 321.616C495.878 321.56 495.946 321.503 496.014 321.445 501.297 316.877 508.598 317.415 513.373 322.72 518.651 328.585 519.058 338.292 514.415 344.731Z" fill="#FFFFFF" transform="matrix(1.00106 0 0 1 722.614 1404.5)"/></g></svg>