<svg width="2632" height="2014" xmlns="http://www.w3.org/2000/svg" xmlns:xlink="http://www.w3.org/1999/xlink" xml:space="preserve" overflow="hidden"><defs><clipPath id="clip0"><rect x="1984" y="702" width="2632" height="2014"/></clipPath></defs><g clip-path="url(#clip0)" transform="translate(-1984 -702)"><path d="M0-1432.46C-121.651-1438.03-201.061-1291.42-437.199-1168.97-874.14-942.39-1415.71-1072.28-1358.35-627.121-1352.52-581.695-1213.06-352.22-1066.44-320.327-742.661-249.94-577.984-442.521-161.761-266.942 485.026 5.57434 318.722-770.549 293.24-938.679 255.788-1183.85 203.977-1423.17 0-1432.46" fill="#B2EF43" transform="matrix(1.00006 0 0 1 3472.39 2512.76)"/><path d="M0-959.95C2.65821-963.145 4.24787-964.735 5.05849-966.319 11.1539-978.547 22.8606-982 34.5304-985.453 54.9907-991.564 75.451-997.402 95.3586-1004.58 116.593-1012.28 137.864-1020.52 158.582-1029.81 179.042-1038.84 198.95-1049.2 218.889-1059.56 242.271-1071.78 265.389-1084.26 288.213-1097.28 307.605-1108.44 326.181-1120.38 345.051-1132.34 363.922-1144.57 382.503-1157.31 401.11-1170.07 422.639-1185.21 444.395-1200.08 465.376-1216.02 492.479-1236.2 519.035-1257.2 545.849-1277.9 566.567-1294.09 587.027-1310.84 608.266-1326.24 630.053-1341.92 652.361-1357.06 674.927-1371.39 691.66-1382.01 708.647-1392.37 726.707-1400.88 748.236-1410.98 770.544-1420.01 793.115-1427.17 808.774-1432.22 825.503-1435.15 841.715-1436.46 854.717-1437.53 867.75-1434.6 880.751-1433.81 897.743-1432.47 913.697-1426.64 928.836-1419.73 952.991-1408.84 974.262-1393.44 992.58-1374.05 1019.39-1345.37 1041.19-1313.22 1060.57-1279.48 1075.46-1253.19 1089.79-1226.63 1103.08-1199.53 1113.16-1178.81 1121.66-1157.04 1130.19-1135.51 1138.42-1114.79 1146.14-1093.81 1152.75-1072.3 1159.14-1051.32 1164.17-1029.81 1169.74-1008.55 1173.48-993.944 1177.17-979.342 1180.38-964.735 1183.56-950.128 1185.7-934.984 1188.36-920.377 1190.49-908.686 1192.86-897.001 1194.74-885.052 1196.59-873.361 1197.66-861.675 1198.99-850.263 1200.32-839.109 1201.91-827.956 1203.24-816.802 1204.57-805.111 1206.16-793.42 1207.23-781.734 1208.55-768.991 1209.63-756.231 1210.41-743.488 1211.47-729.144 1212.25-714.537 1212.8-700.188 1213.32-681.059 1214.13-662.204 1213.87-643.076 1213.35-609.872 1212.8-576.41 1210.95-543.211 1206.71-461.665 1188.91-382.519 1169.77-303.357 1160.73-265.905 1152.79-228.459 1139.49-192.065 1131.26-169.478 1121.17-147.707 1107.88-127.247 1096.99-110.776 1084.76-95.6323 1070.17-82.894 1058.5-72.5349 1044.69-64.0391 1030.87-56.5961 981.463-30.0404 928.867-31.63 875.498-39.331 846.547-43.5788 819.181-52.6062 792.109-63.2443 764.222-74.1403 736.045-84.7574 708.162-96.185 684.007-106.286 660.336-117.698 636.443-128.057 611.477-138.68 586.511-149.312 561.545-159.398 496.469-185.69 429.256-205.082 361.006-220.758 331.792-227.406 301.767-230.859 271.743-231.375 245.445-231.638 219.152-232.169 192.854-230.843 173.726-230.048 154.597-227.127 135.5-224.195 121.167-222.068 107.355-217.82 92.9899-215.957 83.6836-214.631 83.4256-206.135 78.3671-201.613 70.6504-194.965 64.2971-186.727 56.3172-180.358 50.4849-175.573 42.7682-172.915 36.6727-168.409 34.2725-166.82 32.6828-162.298 32.9407-159.382 37.7097-124.588 41.9892-89.7843 47.8267-55.2486 58.7174 8.23255 70.1346 71.719 82.0939 134.932 83.9467 144.496 89.2632 153.523 93.769 162.293 99.6065 173.447 107.06 183.806 118.477 190.454 125.12 194.444 131.215 198.95 137.348 203.735 152.228 215.678 162.051 231.617 166.562 249.419 173.468 277.301 179.042 305.72 184.101 334.139 186.501 347.415 187.538 361.232 187.538 374.781 187.538 385.935 183.032 396.036 177.974 406.395 171.878 418.344 163.64 428.703 153.523 436.404 132.547 452.874 108.65 464.028 82.0623 467.224 30.5404 473.335-21.2709 477.583-73.0507 475.993-91.6266 475.456-110.239 472.54-127.231 465.634-139.195 460.849-149.797 453.411-160.172 444.916-180.374 428.182-194.702 407.464-206.924 384.882-225.795 349.815-236.691 312.11-247.845 274.385-255.562 248.624-263.8 223.379-271.743 197.881-278.649 175.573-285.297 153.25-291.94 130.942-297.519 112.345-303.615 93.7532-308.931 75.1562-313.437 59.7544-317.169 43.821-320.896 28.1402-325.144 9.54849-329.391-9.04844-332.571-27.9033-337.077-55.2697-345.309-82.3571-337.077-110.239-335.487-115.819-337.592-117.145-343.462-116.614-364.18-114.75-385.161-112.624-405.616-118.735-419.692-122.983-433.246-128.299-442.81-140.511-447.058-145.828-451.853-150.87-456.88-155.908-457.949-156.982-460.317-157.777-461.644-157.498-474.94-154.839-487.684-159.087-499.617-163.335-520.072-170.499-539.722-179.274-559.371-188.838-573.994-196.002-587.806-204.772-601.876-213.267-612.772-220.173-623.668-227.079-633.748-235.038-640.918-240.618-647.045-248.056-653.398-254.688-659.788-261.336-665.884-268.5-671.979-275.406-674.895-278.859-678.075-282.575-680.475-286.56-687.897-299.046-695.614-311.526-702.004-324.807-709.168-339.687-714.742-355.347-720.874-370.491-725.638-382.44-730.955-394.125-734.687-406.348-739.745-423.876-744.509-441.415-747.425-459.202-751.415-482.836-753.815-507.007-750.346-530.921-746.909-554.297-744.509-577.673-739.192-600.518-730.955-635.307-716.332-667.716-696.945-697.74-673.048-734.397-649.413-771.312-623.637-806.637-610.893-824.16-593.612-838.246-579.537-854.98-561.998-875.698-545.817-897.469-529.089-918.998-526.946-921.656-524.841-924.314-522.698-926.699-518.714-930.947-514.466-933.073-508.076-934.142-494.006-936.263-480.451-940.79-466.897-945.038-450.948-949.817-435.546-955.655-419.623-960.971-404.742-965.756-389.862-970.262-374.749-974.783-359.611-979.568-344.209-984.074-329.065-988.853-310.489-994.691-292.134-1001.08-273.559-1006.66-255.241-1012.49-236.628-1017.55-218.31-1023.39-203.687-1028.17-189.354-1033.75-174.473-1038.53-159.071-1043.57-143.117-1048.09-127.457-1052.88-108.065-1058.99-88.1578-1058.99-68.4765-1056.07-54.4064-1054.2-40.3363-1048.9-27.04-1043.05-16.1493-1038.27-10.5697-1027.65-4.47421-1017.83 5.61119-1001.35 4.57422-984.09 0.842205-966.303 0.810622-964.472 0.521114-963.145 0-959.95M828.192-1344.3C826.055-1344.56 825.018-1344.3 823.945-1344.56 805.89-1350.13 787.567-1350.4 769.217-1348.01 741.593-1344.56 715.295-1334.99 691.139-1321.71 668.832-1309.49 646.524-1296.49 625.805-1281.61 595.781-1260.35 567.12-1237.51 538.427-1214.94 517.445-1198.47 497.248-1181.21 476.272-1164.74 455.548-1148.54 434.572-1132.33 413.596-1116.65 395.015-1103.1 376.144-1089.82 357.274-1076.81 341.614-1065.91 325.923-1055.03 309.742-1044.67 293.271-1034.05 276.801-1023.69 260.068-1013.34 246.519-1005.1 232.701-997.139 218.631-989.164 204.819-981.463 191.007-974.283 176.937-967.114 163.124-959.95 149.312-953.302 135.5-946.396 121.425-939.748 107.355-932.584 92.9899-926.746 78.3671-920.635 63.2285-916.129 48.3741-910.555 28.7297-903.112 8.52732-898.864-12.1909-898.069-20.4287-897.811-22.5342-894.616-23.6028-887.71-33.1671-831.924-42.1839-776.155-39.5573-719.58-38.4888-694.35-35.5674-668.853-31.5827-643.886-28.6613-625.563-22.8237-607.766-16.9599-589.964-12.712-577.221-7.39035-564.461-0.747457-552.776 9.33794-535.247 21.3025-518.777 31.6458-501.512 41.468-485.041 50.5165-468.05 59.2701-451.048 66.6973-436.973 72.8244-422.366 79.9884-408.022 89.8106-388.372 97.2378-368.17 99.3801-346.141 99.896-339.235 100.191-332.329 100.449-324.886 108.944-327.007 116.919-329.407 125.157-330.997 148.012-334.987 171.099-340.03 194.218-342.151 220.773-344.535 247.877-345.862 274.432-344.809 307.373-343.483 340.835-341.098 373.228-335.519 421.313-327.544 468.066-312.679 514.529-297.535 561.803-282.133 606.966-261.952 652.103-242.029 676.001-231.406 699.635-220.252 723.822-210.156 751.446-198.723 779.334-188.106 806.958-177.21 837.499-165.267 868.592-155.697 901.243-152.244 913.208-150.918 924.883-150.66 938.174-149.586 936.584-153.834 935.773-156.755 934.737-159.15 927.83-173.757 920.667-188.364 914.018-203.25 907.633-217.32 901.538-231.669 895.148-245.74 888.505-260.346 881.336-274.953 874.951-289.56 868.302-304.167 862.465-319.048 856.08-333.913 851.021-345.604 845.995-357.553 841.457-369.501 836.951-381.45 832.409-393.415 828.161-405.358 823.913-417.049 819.665-428.998 815.68-440.689 811.433-452.632 807.185-464.86 802.937-476.809 798.947-488.237 795.22-499.648 791.783-511.076 788.056-523.025 784.877-535.247 781.44-547.196 778.002-559.682 774.276-572.162 771.096-584.922 768.18-596.612 765.522-608.298 762.343-619.989 759.426-632.211 755.952-644.16 753.036-656.383 750.12-669.126 747.462-682.144 745.062-695.161 742.661-707.11 740.556-719.332 738.671-731.281 736.534-744.025 734.687-756.784 733.097-769.801 731.507-782.545 730.439-795.304 729.365-807.785 728.296-819.734 727.517-831.698 726.707-843.647 725.896-856.664 725.638-869.682 725.38-882.425 725.122-894.374 725.38-906.339 725.38-918.545 725.38-931.026 725.122-943.511 725.638-955.997 725.896-968.477 726.707-980.963 727.486-993.443 728.56-1009.38 729.075-1025.06 730.665-1040.99 732.802-1060.64 735.429-1080.03 739.161-1099.42 743.667-1122.26 748.467-1145.1 755.11-1167.69 761.5-1189.99 769.733-1211.79 778.229-1233.3 788.056-1258.52 798.947-1283.5 810.101-1308.2 814.901-1320.92 821.807-1332.07 828.192-1344.3M-364.148-229.785C-339.44-231.912-314.737-233.775-290.318-236.691-232.964-243.066-175.315-249.714-117.924-256.878-75.6773-262.194-33.7198-267.774 8.23781-273.885 25.4872-276.543 40.9206-284.502 54.1801-295.93 55.7697-297.261 56.5804-300.972 56.0277-302.836 54.6959-306.826 52.3009-310.537 50.4533-314.269 44.8737-325.423 39.2994-336.577 33.4618-347.467 27.8822-358.09 22.05-368.449 15.6597-378.545 11.1539-385.988 5.57434-393.152 0.521114-400.321-5.05849-408.022-11.1539-415.723-17.0231-423.697-22.0816-430.603-27.1085-437.509-31.9038-444.952-36.6727-452.927-41.2101-460.886-45.458-469.124-49.7059-477.356-53.4326-485.594-56.8699-493.827-60.3071-502.064-62.9653-510.56-65.9183-519.056-68.8344-527.552-72.5665-536.058-74.9615-545.091-78.3987-557.313-81.0569-569.799-83.4572-582.279-85.8575-594.765-87.7051-607.503-89.2947-620.263-90.8844-633.28-92.2109-646.024-93.0215-659.041-93.8321-671.527-94.6112-684.27-94.6112-696.766-94.3532-716.158-93.2847-735.287-92.2109-754.399-91.1423-773.791-90.8844-793.441-87.963-812.57-83.9783-837.794-78.3987-862.775-72.3033-887.468-67.5395-907.928-73.1139-924.656-86.1154-939.8-98.08-953.612-115.329-954.939-131.542-957.323-143.217-958.913-155.439-958.392-167.141-957.065-179.626-955.476-192.107-952.539-204.071-949.086-215.746-945.896-227.453-941.39-238.865-937.4-250.535-933.41-261.984-929.425-273.653-925.709-285.065-921.998-296.514-918.545-308.184-914.818-319.859-911.365-331.565-907.912-343.235-904.196-355.2-900.485-367.133-896.758-379.097-893.042-390.767-889.331-402.474-885.341-414.144-881.615-426.108-877.904-438.041-874.451-450.006-870.997-461.418-867.544-473.124-864.349-484.536-860.638-496.211-856.648-507.655-851.864-519.33-848.411-524.646-846.826-527.046-843.631-527.825-838.846-530.484-823.445-533.4-808.306-535.247-792.904-538.427-767.68-542.153-742.177-543.743-716.674-545.591-688.255-545.591-659.562-545.333-630.885-545.07-597.423-543.19-563.945-535.768-531.278-527.531-496.748-519.814-462.218-509.992-428.219-502.822-403.79-493.521-380.134-483.436-356.774-474.682-336.85-464.044-317.995-453.153-299.141-445.174-285.07-436.162-271.516-426.598-258.241-422.092-251.867-415.96-246.292-409.606-241.507-395.505-231.638-380.103-229.785-364.148-229.785M858.48-1332.35C856.891-1329.43 856.338-1328.1 855.822-1326.77 839.346-1287.46 826.345-1247.09 815.97-1205.66 801.347-1146.69 793.404-1086.92 789.414-1026.63 787.019-989.717 786.24-952.786 785.166-916.129 784.908-902.059 785.977-888.247 786.24-874.156 786.756-873.898 787.567-873.624 788.088-873.361 791.262-877.351 794.473-881.599 797.394-885.589 810.685-904.438 830.077-909.76 851.311-907.897 864.865-906.565 878.419-902.317 890.9-897.001 913.208-887.71 927.83-869.634 937.105-848.121 941.869-836.967 944.822-824.487 946.927-812.259 949.328-799.779 951.439-787.035 950.365-774.533 949.038-758.342 945.859-742.13 941.322-726.454 932.273-695.371 919.014-666.158 899.364-640.123 880.788-615.157 861.654-590.191 842.526-565.482 839.61-561.771 838.278-558.576 839.867-553.797 845.705-534.147 850.5-514.482 856.596-495.095 873.587-443.036 890.058-390.967 908.67-339.445 924.62-294.814 942.943-251.266 960.74-207.172 965.798-194.428 971.378-181.948 977.989-169.983 981.168-164.146 985.416-156.703 994.465-157.761 998.449-158.292 1002.44-159.624 1006.13-161.214 1030.29-170.778 1052.08-183.795 1071.21-201.855 1085.83-215.668 1098.31-231.343 1108.14-248.608 1117.45-265.079 1126.72-281.549 1134.43-298.819 1140.53-312.368 1145.85-326.444 1148.25-340.788 1151.43-358.848 1151.68-377.445 1152.49-395.762 1153.3-410.112 1153.3-424.445 1153.56-438.531 1153.56-451.806 1153.3-465.086 1153.05-478.104 1152.79-489.789 1152.24-501.738 1151.71-513.429 1151.2-522.72 1150.65-532.284 1149.87-541.59 1149.35-550.086 1148.8-558.318 1148.02-566.814 1147.21-576.105 1146.17-585.411 1145.1-594.696 1144.03-603.729 1142.7-612.756 1141.92-621.789 1140.86-630.817 1140.08-639.849 1139.01-648.619 1137.93-657.114 1136.87-665.626 1135.57-673.843 1134.24-683.133 1132.39-692.166 1131.06-701.209 1129.73-709.979 1128.41-718.474 1127.08-727.244 1125.49-736.813 1123.9-746.378 1122.02-755.926 1120.43-764.159 1119.1-772.396 1117.25-780.355 1115.4-789.388 1113-798.415 1111.16-807.448 1109.3-815.938 1107.98-824.713 1106.1-833.483 1103.96-842.252 1101.33-851.006 1099.19-859.775 1097.05-868.55 1095.46-877.577 1093.36-886.331 1091.24-895.085 1088.04-903.596 1085.64-912.629 1082.46-924.851 1079.8-937.337 1076.07-949.28 1071.31-964.961 1065.99-980.1 1060.93-995.502 1055.87-1010.9 1051.11-1026.58 1045.53-1041.98 1038.62-1060.3 1031.46-1078.37 1023.48-1096.16 1014.44-1116.88 1005.68-1137.86 995.044-1158.04 980.974-1184.6 965.835-1210.89 949.88-1236.39 931.562-1265.61 911.36-1294.03 883.478-1315.28 875.987-1321.71 867.234-1326.77 858.48-1332.35M-9.30636-154.871C-14.3649-154.339-18.6127-153.802-22.8606-153.281-49.1532-149.828-75.7089-146.375-102.007-142.922-127.783-139.469-153.265-135.758-179.042-132.826-214.904-128.836-250.503-125.125-286.365-121.672-291.424-121.135-292.461-118.751-291.424-114.229-285.844-87.1419-280.27-59.7755-274.432-32.6828-265.937 6.6271-257.183 45.9423-248.398 85.5154-238.054 132.531-228.49 179.542-216.783 226.021-207.735 261.884-195.807 296.672-170.578 325.37-153.592 344.756-132.874 357.5-107.355 359.642-82.9045 361.764-57.9384 361.764-33.525 360.969-9.89064 360.437 13.4858 357.258 36.8675 355.926 67.6659 354.063 96.364 346.104 120.809 326.181 126.125 321.659 130.373 315.821 135.695 309.984 129.047 306.789 124.02 304.941 119.219 302.283 114.714 299.625 110.466 296.709 106.739 293.256 102.491 289.008 98.7643 284.223 94.7743 279.443 89.4579 272.795 83.3625 266.7 79.6304 259.257 74.572 248.898 71.1347 237.486 68.2186 226.316 60.5019 196.828 53.3379 167.351 45.9107 137.606 40.3363 115.019 34.2409 92.7162 28.6613 70.1293 23.0869 47.8214 17.7705 25.4977 12.4488 3.18985 8.72208-11.9488 5.28483-27.0927 1.816-41.9576-2.17394-58.4279-5.9007-74.6246-9.85906-91.095-13.5858-107.034-17.281-123.225-12.7752-139.701-10.896-143.996-10.3433-148.775-9.30636-154.871M-604.019-766.854C-604.829-767.112-605.345-767.643-606.156-767.922-621.042-755.973-636.443-744.009-645.75-727.017-674.443-674.169-691.95-618.383-687.444-557.555-686.112-539.495-682.128-521.435-678.138-503.375-674.959-488.494-670.716-473.887-665.915-459.559-661.668-446.005-656.867-432.467-651.035-419.707-644.644-405.637-636.959-391.825-628.727-378.808-622.631-369.244-615.43-360.211-607.487-352.51-597.144-342.409-585.438-333.124-573.768-324.349-566.341-318.774-557.813-314.527-549.87-309.468-549.354-310.005-548.802-310.263-548.023-310.8-548.544-313.458-548.833-316.116-549.87-318.774-553.307-327.802-557.034-336.577-560.508-345.33-563.682-353.563-566.893-361.801-570.073-370.033-572.989-378.271-576.168-386.767-578.826-395.262-581.484-403.758-583.332-412.27-585.732-421.023-588.39-429.793-591.307-438.289-593.449-447.316-595.586-456.085-596.886-465.118-598.765-474.145-601.166-486.631-604.082-498.854-605.929-511.339-607.777-523.82-608.33-536.305-609.661-548.786-611.251-564.982-613.909-581.195-614.72-597.665-615.788-614.136-615.236-630.332-615.236-646.803-615.236-663.273-616.567-679.743-614.978-695.94-613.13-715.069-609.14-733.666-605.929-752.52-605.608-757.284-604.798-762.069-604.019-766.854M829.524-595.802C830.335-595.802 831.114-595.544 831.924-595.265 834.841-600.581 838.02-605.882 840.42-611.462 848.653-632.18 857.148-652.898 863.797-674.411 867.234-685.307 868.044-696.993 868.044-708.41 868.044-720.095 866.197-732.044 863.276-743.735 860.617-755.163 857.18-766.575 851.606-776.934 840.71-797.394 822.65-808.806 799.531-812.259 793.694-813.054 791.299-811.727 792.109-805.616 795.283-783.308 797.684-760.984 801.41-738.677 806.99-706.268 813.085-674.137 819.47-641.986 822.323-626.605 826.055-611.204 829.524-595.802" fill="#FFFFFF" transform="matrix(1.00006 0 0 1 2736.06 2238.41)"/><path d="M0 189.128C5.57434 183.016 11.1539 176.91 16.4704 170.531 40.6574 141.053 64.5234 111.571 88.4525 82.0834 111.539 53.3958 134.426 24.4397 158.034-3.71096 186.438-37.7097 215.683-70.9084 244.345-104.381 249.661-110.492 255.499-116.335 260.815-122.441 264.773-127.22 269.053-125.894 273.848-123.499 278.391-121.109 278.128-117.656 276.77-113.677 265.352-83.6625 254.72-53.1168 241.944-23.6344 237.144-12.4804 227.611-3.45304 220.158 6.64815 208.74 21.792 197.329 36.9307 185.659 51.8061 175.8 64.2865 165.488 76.5038 155.376 88.9947 145.259 101.212 135.463 113.434 125.352 125.652 112.834 140.79 100.643 155.934 88.1946 171.068 76.2616 185.943 64.0023 200.55 52.0746 215.425 39.8784 230.564 27.3664 245.966 15.1755 260.841 5.31642 272.795-4.47421 284.744-15.107 296.167-20.9446 302.536-27.8822 307.852-34.7567 312.895-39.5573 316.348-49.6059 310.773-51.7482 305.194-58.9438 286.076-51.2271 268.005-46.9476 249.945-41.8892 229.227-35.2778 208.777-29.1824 188.327-28.6613 186.201-28.1454 184.338-27.298 181.153-29.4403 182.479-30.9984 182.748-31.5827 183.543-45.3948 201.076-58.6859 218.599-72.498 236.133-84.1731 251.009-95.585 265.884-107.839 280.491-109.723 282.612-115.298 282.344-118.735 281.549-123.272 280.754-124.573 277.038-123.272 272.522-118.993 257.378-114.782 242.508-110.497 227.364-109.46 223.374-107.839 219.663-107.323 215.673-102.781 189.38-88.7105 168.136-73.0823 147.675-54.4696 123.504-36.7043 98.8011-17.8337 74.8983-6.67974 60.5598 5.83753 47.274 17.7705 33.4618 22.05 28.6771 32.8776 31.6037 35.5358 37.4518 40.0731 47.0161 38.7151 56.3119 35.7937 65.8709 24.3818 101.728 13.2279 137.848 2.07393 173.71 0.452685 178.758-0.584279 183.801-1.62124 188.854-1.62124 188.591-0.779039 188.859 0 189.128" fill="#FFFFFF" transform="matrix(1.00006 0 0 1 4132.48 828.335)"/><path d="M0-168.894C-11.1539-176.058-21.2709-182.448-31.0616-189.075-33.7198-190.944-36.6412-192.791-38.5203-195.449-56.2856-220.415-74.1193-245.655-91.6266-270.885-97.2062-279.117-95.585-284.955-86.3102-288.15-84.431-288.681-81.7728-288.681-80.2147-287.887-52.3325-271.158-24.9661-253.356 3.17932-237.423 40.6574-216.441 70.6189-187.212 97.9852-154.545 111.539-138.611 125.352-122.936 139.164-107.271 143.959-101.954 145.775-97.4483 139.68-91.874 138.058-90.2843 137.021-87.884 135.727-86.0365 130.41-77.7986 121.393-78.5935 113.419-77.5407 100.386-75.9511 87.0892-74.8825 73.8613-73.8298 69.0608-73.2929 64.0023-73.5666 59.2701-73.0349 57.391-72.7717 55.575-72.2401 52.3957-71.4453 64.0707-60.8282 74.9615-51.2587 85.3364-41.4365 136.048 7.164 191.038 50.1901 248.95 89.7843 253.23 92.7004 256.925 95.8955 260.878 99.0696 266.2 102.786 264.836 107.049 261.915 111.555 258.999 116.077 255.82 119.788 249.724 116.077 228.716 103.06 207.509 90.3159 186.759 76.7617 166.593 63.7444 146.359 51.0008 126.71 37.1886 111.603 26.5716 97.7905 14.3491 83.3941 2.65821 62.7074-14.3491 41.6944-31.0773 21.5289-48.8637 10.3749-58.4279 0.842205-69.5819-9.01159-80.4726-24.1239-96.9483-38.7783-113.934-53.3695-130.684-60.8282-139.18-53.6274-158.566-42.2155-160.429-30.2825-162.293-18.0284-163.625-6.09546-165.472-4.80057-166.235-2.91613-167.562 0-168.894" fill="#FFFFFF" transform="matrix(1.00006 0 0 1 4261.59 2033.29)"/><path d="M0 36.6412C17.5073 30.8036 34.8252 24.9503 52.3325 19.118 110.497 0.263189 168.409-18.8706 226.316-37.7202 229.753-38.794 233.512-39.052 236.949-39.8468 242.271-41.1733 245.708-39.3099 247.845-34.2672 249.987-28.9508 248.103-25.4977 243.044-23.3764 231.896-18.5917 220.742-13.2753 209.067-9.3011 97.5326 28.6823-14.0701 66.392-125.61 104.112-128.526 105.186-131.705 105.702-134.621 106.497-144.738 109.155-149.733 105.428-150.055 95.0691-150.055 92.6846-147.917 90.0264-146.101 88.163-134.69 77.267-122.757 66.9079-111.603 55.496-102.849 46.7266-94.8691 37.436-86.8945 28.1296-79.1778 18.8391-71.7874 9.00106-64.3286-0.826413-61.9284-4.01626-59.5281-7.19559-57.1278-10.3907-57.6489-10.9223-58.17-11.4592-58.749-11.9804-62.1863-10.6486-65.6235-9.31689-69.1292-7.73249-107.644 9.5327-145.649 27.3348-184.427 43.5315-215.225 56.5488-246.871 67.7027-277.933 79.9252-283.77 82.3097-287.465 80.999-289.866 74.8825-292.266 69.0502-291.745 65.0603-285.328 62.1442-261.657 51.2481-238.312 39.8363-214.967 28.9403-142.985-4.26366-70.2293-35.0778 3.88993-62.4284 11.6066-65.3445 19.5813-67.2132 27.2348-69.5924 35.9885-72.5138 44.7421-71.719 52.4588-66.6763 55.1223-64.8129 58.2963-60.565 58.0384-57.3857 57.7805-51.0165 57.0015-43.8368 53.759-38.5309 45.0053-24.4608 35.4042-10.9065 25.3556 2.11078 17.8968 11.6751 9.6643 20.7024 1.68441 29.7351 0.38952 31.3247-0.973799 32.9302-2.26869 34.5199-0.842205 35.3094-0.257925 36.1043 0 36.6412" fill="#FFFFFF" transform="matrix(1.00006 0 0 1 4367.32 1381.8)"/></g></svg>