<svg width="398" height="379" xmlns="http://www.w3.org/2000/svg" xmlns:xlink="http://www.w3.org/1999/xlink" xml:space="preserve" overflow="hidden"><g transform="translate(-2191 -1516)"><path d="M217.953 53.4692C207.243 42.7594 189.82 42.7594 179.19 53.4692L60.2627 172.396C55.0677 177.591 52.1904 184.465 52.1904 191.818L52.1904 348.868C52.1904 363.974 64.4987 376.282 79.6043 376.282L143.624 376.282C158.729 376.282 171.037 363.974 171.037 348.868L171.037 275.738C171.037 270.703 175.114 266.627 180.149 266.627L216.754 266.627C221.789 266.627 225.865 270.703 225.865 275.738L225.865 348.948C225.865 364.054 238.174 376.362 253.279 376.362L317.298 376.362C332.404 376.362 344.712 364.054 344.712 348.948L344.712 191.818C344.712 184.465 341.835 177.591 336.64 172.396L217.953 53.4692ZM326.65 348.868C326.65 353.904 322.573 357.98 317.538 357.98L253.519 357.98C248.484 357.98 244.408 353.904 244.408 348.868L244.408 275.738C244.408 260.632 232.099 248.324 216.994 248.324L180.389 248.324C165.283 248.324 152.975 260.632 152.975 275.738L152.975 348.948C152.975 353.984 148.898 358.06 143.863 358.06L79.6043 358.06C74.5691 358.06 70.493 353.984 70.493 348.948L70.493 191.818C70.493 189.34 71.4521 187.102 73.2104 185.344L192.057 66.4169C195.494 62.9801 201.568 62.9801 205.005 66.4169L323.932 185.344C325.69 187.102 326.65 189.34 326.65 191.818L326.65 348.868Z" fill="#FFFFFF" transform="matrix(1.00153 0 0 1 2191.12 1518.64)"/><path d="M217.953 7.75263C207.563-2.63749 189.5-2.63749 179.19 7.75263L125.401 61.5415 125.401 51.6309C125.401 36.5253 113.093 24.217 97.9869 24.217L79.6043 24.217C64.4987 24.217 52.1904 36.5253 52.1904 51.6309L52.1904 134.752 0 186.942 12.9477 199.89 192.057 20.7003C195.494 17.2636 201.568 17.2636 205.005 20.7003L384.195 199.89 397.143 186.942 217.953 7.75263ZM70.493 51.6309C70.493 46.5957 74.5691 42.5196 79.6043 42.5196L97.907 42.5196C102.942 42.5196 107.018 46.5957 107.018 51.6309L107.018 79.8441 70.4131 116.449 70.4131 51.6309Z" fill="#FFFFFF" transform="matrix(1.00153 0 0 1 2191.12 1518.64)"/></g></svg>