<svg width="484" height="462" xmlns="http://www.w3.org/2000/svg" xmlns:xlink="http://www.w3.org/1999/xlink" xml:space="preserve" overflow="hidden"><g transform="translate(-3010 -2954)"><path d="M385.764 190.049C359.665 163.95 324.916 149.575 287.912 149.575 250.909 149.575 216.16 163.95 190.055 190.049 136.104 244.006 136.104 331.808 190.055 385.77 216.149 411.869 250.898 426.244 287.907 426.244 324.911 426.244 359.665 411.875 385.764 385.77 411.864 359.665 426.238 324.916 426.238 287.912 426.238 250.909 411.858 216.149 385.764 190.049ZM378.024 378.03C353.988 402.06 321.987 415.296 287.907 415.296 253.821 415.296 221.826 402.066 197.795 378.03 148.108 328.337 148.108 247.482 197.795 197.789 221.831 173.759 253.832 160.523 287.912 160.523 321.993 160.523 353.988 173.759 378.024 197.789 427.716 247.482 427.716 328.332 378.024 378.03Z" fill="#FFFFFF" transform="matrix(1 0 0 1 2908.24 2834.67)"/><path d="M570.821 520.379 478.701 428.258C478.701 428.258 478.701 428.258 478.701 428.258L478.701 428.258 459.64 409.198C457.588 407.145 453.953 407.145 451.9 409.198L448.999 412.099C448.731 411.464 448.353 410.862 447.833 410.342L424.377 386.875C445.167 358.307 456.416 323.996 456.416 287.907 456.416 242.829 438.911 200.488 407.113 168.701 375.32 136.914 332.99 119.408 287.918 119.408 242.84 119.408 200.499 136.919 168.706 168.712 102.981 234.437 102.981 341.387 168.706 407.124 200.505 438.911 242.84 456.416 287.912 456.416 324.002 456.416 358.312 445.167 386.881 424.377L410.342 447.85C410.862 448.37 411.459 448.747 412.094 449.015L409.22 451.895C407.08 454.035 407.08 457.495 409.22 459.635L429.014 479.434 429.014 479.434C429.014 479.434 429.014 479.434 429.014 479.434L520.385 570.821C527.117 577.56 536.078 581.271 545.603 581.271 555.128 581.271 564.088 577.56 570.821 570.821 584.725 556.901 584.725 534.277 570.821 520.379ZM176.436 399.372C114.98 337.906 114.98 237.902 176.436 176.441 206.165 146.718 245.752 130.345 287.907 130.345 330.056 130.345 369.643 146.712 399.361 176.43 429.09 206.154 445.457 245.741 445.457 287.896 445.457 330.051 429.09 369.638 399.361 399.356 369.638 429.079 330.056 445.446 287.901 445.446 245.758 445.457 206.165 429.09 176.436 399.372ZM418.077 440.098 395.584 417.595C399.559 414.289 403.412 410.807 407.107 407.107 410.802 403.407 414.294 399.553 417.601 395.584L440.088 418.082C440.608 418.602 441.204 418.986 441.845 419.248L419.237 441.856C418.975 441.221 418.597 440.618 418.077 440.098ZM455.77 420.808 467.205 432.243 432.763 467.698 420.825 455.754 455.77 420.808ZM563.081 563.076C558.406 567.745 552.205 570.318 545.603 570.318 539.001 570.318 532.794 567.745 528.125 563.076L440.509 475.438 474.951 439.978 563.087 528.119C572.715 537.753 572.715 553.431 563.081 563.076Z" fill="#FFFFFF" transform="matrix(1 0 0 1 2908.24 2834.67)"/></g></svg>